<svg width="26" height="15" viewBox="0 0 26 15" fill="none" xmlns="http://www.w3.org/2000/svg">
<path d="M12.4675 0.634077C12.5199 0.554726 12.5969 0.488554 12.6904 0.442468C12.784 0.396382 12.8906 0.37207 12.9993 0.37207C13.1079 0.37207 13.2146 0.396382 13.3082 0.442468C13.4017 0.488554 13.4787 0.554726 13.5311 0.634077L17.1154 6.30654C17.2009 6.43789 17.3202 6.55183 17.4647 6.64019C17.6093 6.72855 17.7755 6.78912 17.9515 6.81757C18.1275 6.84602 18.3088 6.84164 18.4825 6.80473C18.6562 6.76783 18.818 6.69933 18.9561 6.60414L24.1493 2.89537C24.2489 2.82778 24.3718 2.7883 24.5001 2.78261C24.6284 2.77693 24.7556 2.80533 24.8633 2.86374C24.971 2.92214 25.0538 3.00753 25.0996 3.10762C25.1453 3.20771 25.1519 3.31734 25.1182 3.42071L21.6771 13.7919C21.6069 14.0041 21.4556 14.1915 21.2461 14.3255C21.0366 14.4596 20.7805 14.5331 20.5164 14.5349H5.4834C5.21911 14.5333 4.96264 14.4599 4.75293 14.3258C4.54322 14.1918 4.39171 14.0043 4.32141 13.7919L0.881593 3.42172C0.847899 3.31835 0.854421 3.20872 0.90022 3.10864C0.946019 3.00855 1.02873 2.92315 1.13645 2.86475C1.24418 2.80634 1.37135 2.77794 1.49967 2.78362C1.62799 2.78931 1.75083 2.82879 1.85052 2.89638L7.04243 6.60515C7.1806 6.70034 7.34235 6.76884 7.51604 6.80575C7.68974 6.84265 7.87108 6.84703 8.04706 6.81858C8.22303 6.79013 8.38926 6.72956 8.53382 6.6412C8.67838 6.55285 8.79768 6.4389 8.88315 6.30756L12.4675 0.634077Z" fill="#FFC52E"/>
</svg>
