<?xml version="1.0" encoding="UTF-8"?>
<svg version="1.1" xmlns="http://www.w3.org/2000/svg" width="1150" height="641">
<path d="M0 0 C379.5 0 759 0 1150 0 C1150 211.53 1150 423.06 1150 641 C770.5 641 391 641 0 641 C0 429.47 0 217.94 0 0 Z " fill="#FCFCFC" transform="translate(0,0)"/>
<path d="M0 0 C1.06287231 0.00253784 2.12574463 0.00507568 3.2208252 0.00769043 C5.82301694 0.01427085 8.42517066 0.0234916 11.02734375 0.03515625 C11.34707226 30.15026653 11.59465875 60.26531842 11.74225836 90.38175263 C11.75976718 93.9413535 11.7778878 97.50095101 11.79638672 101.06054688 C11.80005906 101.76916547 11.80373141 102.47778406 11.80751504 103.20787594 C11.86835007 114.66544522 11.97868468 126.12202597 12.1074829 137.5790098 C12.23864326 149.34469513 12.31621589 161.10986464 12.34458268 172.87625098 C12.36203034 179.48159537 12.40555608 186.08510517 12.50756454 192.68976593 C12.60288593 198.91211392 12.63185081 205.13131174 12.61085129 211.35432053 C12.61469026 213.63283565 12.64237618 215.91146043 12.6962204 218.1893425 C13.10267749 236.27795718 13.10267749 236.27795718 7.94958878 242.00743866 C5.06910638 244.69180946 1.98596326 246.91724379 -1.34989905 248.99950171 C-3.44202755 250.33471217 -5.2735343 251.89855047 -7.12109375 253.55078125 C-7.66685059 254.01242676 -8.21260742 254.47407227 -8.77490234 254.94970703 C-24.58031345 268.37032155 -41.71767387 284.91831716 -43.72265625 306.78515625 C-43.75875 307.584375 -43.79484375 308.38359375 -43.83203125 309.20703125 C-43.97265625 311.03515625 -43.97265625 311.03515625 -44.97265625 312.03515625 C-49.74999392 313.1517987 -54.58804549 314.00764246 -59.41015625 314.91015625 C-60.12706635 315.04521576 -60.84397644 315.18027527 -61.58261108 315.31942749 C-75.31358606 317.88940425 -89.06554286 319.70322113 -102.97265625 321.03515625 C-103.86702393 321.12941895 -104.7613916 321.22368164 -105.68286133 321.32080078 C-140.07405322 324.79252562 -175.33292675 320.19877817 -203.1550293 298.17749023 C-226.28165277 279.02987364 -241.24163406 255.01722179 -245.72265625 224.95703125 C-247.21185983 207.55196436 -245.83214512 189.26811508 -238.97265625 173.03515625 C-238.69413818 172.37378662 -238.41562012 171.71241699 -238.12866211 171.03100586 C-231.5716207 155.88360535 -223.0130845 142.45812664 -210.97265625 131.03515625 C-210.31265625 131.03515625 -209.65265625 131.03515625 -208.97265625 131.03515625 C-208.97265625 130.37515625 -208.97265625 129.71515625 -208.97265625 129.03515625 C-187.82642359 110.33896986 -162.62854942 101.81677922 -134.75097656 101.90478516 C-132.71281626 101.91018231 -130.6748727 101.90479146 -128.63671875 101.8984375 C-126.69152344 101.90037109 -126.69152344 101.90037109 -124.70703125 101.90234375 C-123.53366211 101.90347168 -122.36029297 101.90459961 -121.15136719 101.90576172 C-118.30056114 102.02180835 -115.74287213 102.38001125 -112.97265625 103.03515625 C-112.946875 102.22175781 -112.92109375 101.40835938 -112.89453125 100.5703125 C-112.07502815 84.01262481 -108.24572104 68.45935622 -99.39453125 54.328125 C-98.2535489 52.48813423 -97.21926223 50.58218207 -96.22265625 48.66015625 C-91.27016082 39.95201845 -83.79566911 32.18080239 -75.97265625 26.03515625 C-75.10253906 25.32875 -74.23242188 24.62234375 -73.3359375 23.89453125 C-51.86484765 7.0387224 -27.06166743 -0.12339589 0 0 Z " fill="#FEF1AA" transform="translate(1138.97265625,13.96484375)"/>
<path d="M0 0 C9.17187523 7.91068356 16.66449599 16.69004938 23 27 C23.82564453 28.33417969 23.82564453 28.33417969 24.66796875 29.6953125 C31.13628796 40.83611936 34.93894983 52.83983748 37.875 65.3125 C38.090354 66.20686768 38.30570801 67.10123535 38.52758789 68.02270508 C39.94805016 74.4144912 40.24047188 80.46403709 40 87 C40.85561523 86.83991455 41.71123047 86.6798291 42.59277344 86.51489258 C71.56815693 82.1361964 101.64958715 88.36918496 125.40332031 105.76416016 C130.24585423 109.51231103 134.62239625 113.72870949 139 118 C139.77859375 118.70511719 140.5571875 119.41023437 141.359375 120.13671875 C146.2541735 124.69304714 150.13399082 129.71743117 153.9375 135.1875 C154.4106665 135.86514404 154.88383301 136.54278809 155.37133789 137.2409668 C155.81469482 137.89750244 156.25805176 138.55403809 156.71484375 139.23046875 C157.10792725 139.81207764 157.50101074 140.39368652 157.90600586 140.99291992 C159 143 159 143 161 149 C27.35 149 -106.3 149 -244 149 C-244 138.11 -244 127.22 -244 116 C-239.215 115.113125 -234.43 114.22625 -229.5 113.3125 C-219.37427717 111.39753579 -209.52936321 109.32406841 -199.80078125 105.8828125 C-197 105 -197 105 -193 105 C-193.33 104.01 -193.66 103.02 -194 102 C-196.46060828 67.87818663 -186.36166453 35.43675935 -164.15234375 9.32421875 C-161.56871074 6.53427022 -158.87037976 4.01889699 -155.9375 1.6015625 C-154.67199932 0.55548331 -153.43983228 -0.53265948 -152.25 -1.6640625 C-143.2116549 -10.1959486 -131.48788292 -16.44212315 -120 -21 C-118.65808594 -21.53560547 -118.65808594 -21.53560547 -117.2890625 -22.08203125 C-77.14137641 -36.76618493 -32.62092346 -26.34312546 0 0 Z " fill="#FEF0AA" transform="translate(244,492)"/>
<path d="M0 0 C1.29750437 0.00113916 1.29750437 0.00113916 2.62122095 0.00230134 C3.61797078 -0.00168076 4.61472062 -0.00566286 5.641675 -0.00976562 C6.74476958 -0.00393994 7.84786416 0.00188574 8.98438585 0.00788796 C10.73266776 0.00532468 10.73266776 0.00532468 12.51626849 0.00270963 C15.76125729 -0.00002367 19.00608791 0.00625953 22.25105798 0.01626575 C25.74662473 0.02487715 29.24218367 0.02198173 32.73775804 0.0204612 C38.79734755 0.01941088 44.85689409 0.0257028 50.91647279 0.03693688 C59.67767389 0.05316906 68.43885414 0.05839754 77.20006864 0.06091286 C91.41345431 0.06529356 105.62681707 0.0786128 119.84019029 0.09751809 C133.64975943 0.11586721 147.45932236 0.13002844 161.26890123 0.13853371 C162.11966952 0.13905916 162.97043781 0.13958461 163.84698696 0.14012598 C168.11490596 0.14273599 172.38282501 0.14526342 176.65074408 0.14774978 C212.07523728 0.16849394 247.49970386 0.20372964 282.92417467 0.24839699 C279.6719339 27.60266622 267.31470383 49.08220931 245.92417467 66.24839699 C229.98337916 78.53064927 211.26069372 89.34226093 193.17417467 98.12339699 C155.82542504 115.53162059 155.82542504 115.53162059 131.11704576 146.55161965 C130.37019579 148.77910512 129.63916996 151.01050725 128.92417467 153.24839699 C83.48029176 153.69261872 38.53912354 153.7438928 3.23667467 120.99839699 C-8.998131 108.03496766 -16.85321716 92.45666042 -21.07582533 75.24839699 C-21.33843153 74.33634499 -21.33843153 74.33634499 -21.60634291 73.4058677 C-26.06783164 52.90343613 -20.91392813 28.39874332 -9.98207533 10.78355324 C-3.1517058 0.37713878 -3.1517058 0.37713878 0 0 Z " fill="#A6E999" transform="translate(58.075825333595276,-0.24839699268341064)"/>
<path d="M0 0 C1.155 0.36351562 2.31 0.72703125 3.5 1.1015625 C27.56647776 9.14101089 46.69489714 25.25400585 58.1875 47.875 C65.3043031 62.32283563 68.36251002 76.39677302 68.3125 92.5 C68.32861328 93.53769531 68.34472656 94.57539063 68.36132812 95.64453125 C68.36830684 106.8523469 65.39984129 116.79979965 61.25 127.125 C60.940625 127.94097656 60.63125 128.75695312 60.3125 129.59765625 C54.0988464 145.20576231 54.0988464 145.20576231 47.35302734 148.15869141 C44.25699633 148.89584165 41.22093081 149.36190989 38.0625 149.75 C35.81997467 150.11105146 33.57904632 150.48216461 31.33984375 150.86328125 C30.25429199 151.04455566 29.16874023 151.22583008 28.05029297 151.41259766 C9.26829952 155.02949187 -9.43492834 166.39226916 -22.29296875 180.34765625 C-24 182 -24 182 -26 182 C-26.25652344 182.57105469 -26.51304688 183.14210938 -26.77734375 183.73046875 C-28.12609861 186.23406803 -29.71491797 188.1513889 -31.5625 190.3125 C-49.74174944 212.92972173 -57.28920128 239.92113022 -57.0625 268.625 C-57.05798828 269.72457031 -57.05347656 270.82414062 -57.04882812 271.95703125 C-57.03717139 274.63808003 -57.02081017 277.31900932 -57 280 C-60.99312561 281.15671435 -64.98964216 282.30059189 -68.99023438 283.43115234 C-70.8851213 283.96748453 -72.77854816 284.5089675 -74.671875 285.05078125 C-81.45312777 286.93527102 -88.19883899 288.51289223 -95.125 289.75 C-95.83567627 289.87769775 -96.54635254 290.00539551 -97.27856445 290.13696289 C-100.90222769 290.75354459 -104.33131541 291.05208285 -108 291 C-108.15982294 259.72096704 -108.2836369 228.44204244 -108.35745731 197.16269786 C-108.36621184 193.46661887 -108.37527214 189.77054068 -108.38452148 186.07446289 C-108.38635766 185.33866646 -108.38819383 184.60287002 -108.39008565 183.84477673 C-108.42051248 171.94397333 -108.47568639 160.04340758 -108.54006957 148.14274498 C-108.60562098 135.92388261 -108.64443055 123.70514436 -108.65861946 111.48611337 C-108.66820575 103.9512851 -108.6984384 96.41712862 -108.75541527 88.88250724 C-108.79692857 83.09668266 -108.80116356 77.31128477 -108.79175377 71.52534103 C-108.79367522 69.15784771 -108.80754201 66.7903283 -108.83443832 64.42298698 C-109.08162533 41.53847909 -109.08162533 41.53847909 -101 33 C-100.52546607 32.44617236 -100.05093214 31.89234472 -99.56201839 31.32173443 C-98.38112484 30.00348031 -97.10026904 28.77656525 -95.8125 27.5625 C-94.99394531 26.78003906 -94.17539063 25.99757813 -93.33203125 25.19140625 C-92.56246094 24.46824219 -91.79289062 23.74507813 -91 23 C-90.3296875 22.31292969 -89.659375 21.62585938 -88.96875 20.91796875 C-67.16687919 -0.32155221 -28.81649617 -9.57995218 0 0 Z " fill="#FEABEE" transform="translate(108,317)"/>
<path d="M0 0 C0 54.12 0 108.24 0 164 C-90.42 164 -180.84 164 -274 164 C-272.82122977 148.67598705 -272.82122977 148.67598705 -270.9375 142.1875 C-270.72053467 141.43178711 -270.50356934 140.67607422 -270.2800293 139.89746094 C-261.95006379 112.44611263 -242.1014298 90.00147741 -217.30761719 76.12817383 C-202.22013172 68.12532503 -186.23296415 64.61620384 -169.25 64.75 C-168.00516846 64.75749268 -166.76033691 64.76498535 -165.4777832 64.77270508 C-152.48886517 64.92513518 -141.29741328 66.55088482 -129.08203125 70.9765625 C-126.06673041 72.1575725 -126.06673041 72.1575725 -123 72 C-122.6596875 71.00742187 -122.319375 70.01484375 -121.96875 68.9921875 C-116.89961769 54.61509483 -110.27652525 42.44472706 -100 31 C-99.38769531 30.30519531 -98.77539062 29.61039062 -98.14453125 28.89453125 C-72.55658089 1.56070795 -35.6094128 -5.08705897 0 0 Z " fill="#9ED6FE" transform="translate(1150,477)"/>
<path d="M0 0 C11.56691071 9.81817922 20.37529591 22.34940072 25.14453125 36.8203125 C25.53511719 37.97273438 25.92570313 39.12515625 26.328125 40.3125 C31.34109461 57.27680545 31.26821723 75.52211931 24.14453125 91.8203125 C23.70246338 92.83496582 23.70246338 92.83496582 23.25146484 93.87011719 C15.11801457 112.04878035 2.97080364 126.73591071 -12.85546875 138.8203125 C-13.40299805 139.24812012 -13.95052734 139.67592773 -14.51464844 140.11669922 C-23.74472693 147.31263633 -33.3894731 153.3319332 -43.77685547 158.72607422 C-45.17545129 159.46233291 -46.55764163 160.2305354 -47.92236328 161.02783203 C-52.63129246 163.67158044 -55.44317503 164.3082283 -60.85546875 162.8203125 C-70.85980032 158.78495187 -79.96340149 152.85683986 -88.85546875 146.8203125 C-89.81324219 146.17191406 -90.77101563 145.52351562 -91.7578125 144.85546875 C-99.02833377 139.75462958 -105.44680669 133.93926792 -111.85546875 127.8203125 C-112.67273438 127.05589844 -113.49 126.29148437 -114.33203125 125.50390625 C-130.52317369 109.95261996 -141.53369419 88.69318873 -142.13867188 66.06152344 C-142.30017746 52.32816508 -139.80452092 40.26078058 -133.85546875 27.8203125 C-133.41332031 26.89476562 -132.97117187 25.96921875 -132.515625 25.015625 C-122.06292314 4.57349893 -103.45745465 -9.85599652 -81.90234375 -17.18359375 C-53.27259288 -25.46063066 -23.01924475 -18.62502815 0 0 Z " fill="#FE6E11" transform="translate(407.85546875,285.1796875)"/>
<path d="M0 0 C42.9 0 85.8 0 130 0 C130 10.66852852 129.99148788 20.98864009 129.125 31.5625 C129.03476562 32.71145752 128.94453125 33.86041504 128.8515625 35.04418945 C127.89438233 46.88513964 126.88795879 58.44816482 124 70 C134.56 70 145.12 70 156 70 C156 79.57 156 89.14 156 99 C96.6 99 37.2 99 -24 99 C-24 89.43 -24 79.86 -24 70 C15.27 70 54.54 70 95 70 C95.77746025 56.00571545 96.41651195 42.0037133 97 28 C64.99 28 32.98 28 0 28 C0 18.76 0 9.52 0 0 Z " fill="#FE6F12" transform="translate(704,239)"/>
<path d="M0 0 C8.97574064 7.69543772 16.26353747 17.11657343 17.2890625 29.1484375 C17.67722379 43.29303479 14.43388521 54.36054228 5.08203125 65.11328125 C-1.16888378 71.24625449 -8.88131382 74.80155862 -16.98828125 77.89453125 C-17.70153564 78.17482178 -18.41479004 78.4551123 -19.1496582 78.74389648 C-26.13438829 81.18416981 -32.91731403 81.38766659 -40.27319336 81.34057617 C-42.28799504 81.33208514 -44.29993089 81.36089012 -46.31445312 81.39257812 C-63.06860251 81.38434513 -78.66858582 75.87082735 -90.8671875 64.1796875 C-93.84470335 60.97186655 -96.03543685 57.80022005 -97.98828125 53.89453125 C-98.37886719 53.21648437 -98.76945313 52.5384375 -99.171875 51.83984375 C-103.72698088 42.72963198 -103.4131616 31.10783161 -101.17578125 21.3515625 C-96.8771217 9.81384087 -87.07479687 0.06858361 -76.2109375 -5.5390625 C-52.25726713 -16.14666686 -21.88273283 -15.41803006 0 0 Z " fill="#FE6F12" transform="translate(631.98828125,346.10546875)"/>
<path d="M0 0 C8.06335693 5.66906512 14.63905292 12.96100673 16.8515625 22.74609375 C17.94588665 34.27380383 17.07316852 44.67614315 9.56640625 53.81640625 C9.00050781 54.45320313 8.43460937 55.09 7.8515625 55.74609375 C7.27535156 56.40351563 6.69914062 57.0609375 6.10546875 57.73828125 C1.20547599 62.97444815 -4.33899773 66.7318023 -10.35498047 70.58203125 C-13.84686486 72.84847622 -17.27671071 75.20610182 -20.7109375 77.55859375 C-21.401875 78.02692627 -22.0928125 78.49525879 -22.8046875 78.9777832 C-23.45566406 79.423396 -24.10664063 79.86900879 -24.77734375 80.328125 C-25.35556885 80.72233643 -25.93379395 81.11654785 -26.52954102 81.52270508 C-28.21857862 82.73220213 -28.21857862 82.73220213 -29.73413086 84.3972168 C-31.1484375 85.74609375 -31.1484375 85.74609375 -33.1484375 85.74609375 C-35.23223259 89.59310007 -36.64530374 93.64663804 -38.1484375 97.74609375 C-54.8754773 100.13567086 -72.25193439 100.66892442 -86.671875 90.7578125 C-94.58628565 84.32891426 -99.03174445 75.63718277 -101.1484375 65.74609375 C-101.91507643 56.08644318 -99.70612254 46.68950274 -93.8984375 38.80859375 C-87.95036557 31.8670537 -80.33449618 26.16820325 -71.1484375 24.74609375 C-68.60809762 24.6540132 -66.06544073 24.61607994 -63.5234375 24.62109375 C-62.21117187 24.61851562 -60.89890625 24.6159375 -59.546875 24.61328125 C-56.1484375 24.74609375 -56.1484375 24.74609375 -53.1484375 25.74609375 C-53.0865625 24.77671875 -53.0246875 23.80734375 -52.9609375 22.80859375 C-51.63629081 13.61069492 -45.32055125 7.22732053 -38.3984375 1.62109375 C-27.33885999 -6.36981141 -11.83126661 -6.90515742 0 0 Z " fill="#01A05B" transform="translate(388.1484375,161.25390625)"/>
<path d="M0 0 C30.69 0 61.38 0 93 0 C93 8.58 93 17.16 93 26 C72.87 26 52.74 26 32 26 C32 37.88 32 49.76 32 62 C69.25322974 60.47376062 69.25322974 60.47376062 105.95849609 54.41137695 C108 54 108 54 111 54 C112.64733759 61.98079085 113.50877547 69.86894139 114 78 C107.36896714 80.75492186 100.80417938 82.22169843 93.75 83.5 C91.99381348 83.82145996 91.99381348 83.82145996 90.20214844 84.14941406 C60.23641371 89.43467134 30.48743867 90 0 90 C0 60.3 0 30.6 0 0 Z " fill="#FE6E11" transform="translate(496,241)"/>
<path d="M0 0 C10.89 0 21.78 0 33 0 C33 14.19 33 28.38 33 43 C65.67 43 98.34 43 132 43 C132 51.91 132 60.82 132 70 C88.44 70 44.88 70 0 70 C0 46.9 0 23.8 0 0 Z " fill="#FE6E10" transform="translate(706,348)"/>
<path d="M0 0 C10.89 0 21.78 0 33 0 C33 14.19 33 28.38 33 43 C41.58 43 50.16 43 59 43 C59 52.57 59 62.14 59 72 C50.42 72 41.84 72 33 72 C33 82.56 33 93.12 33 104 C22.11 104 11.22 104 0 104 C0 69.68 0 35.36 0 0 Z " fill="#FE7013" transform="translate(617,230)"/>
<path d="M0 0 C6.7790984 5.68277537 10.48412737 11.76097586 13.2578125 20.08203125 C14.06417495 30.40967342 12.68108155 38.76956542 6.2578125 47.08203125 C0.15798342 54.02905881 -7.20740459 58.47953353 -16.49609375 59.3359375 C-26.56548936 59.73459812 -33.43070447 57.33857171 -41.1171875 50.83203125 C-45.19271952 46.94175068 -47.79557568 43.34467367 -49.7421875 38.08203125 C-50.1546875 37.17453125 -50.5671875 36.26703125 -50.9921875 35.33203125 C-53.03571116 26.47676207 -52.40356975 17.9598929 -47.7421875 10.08203125 C-42.15376011 2.3083125 -35.67903364 -3.25399008 -26.234375 -5.51953125 C-16.60112902 -7.05964268 -8.0913954 -5.6593663 0 0 Z " fill="#FCFBFA" transform="translate(370.7421875,324.91796875)"/>
<path d="M0 0 C0.18792114 0.85827393 0.18792114 0.85827393 0.37963867 1.73388672 C2.94693548 13.39791369 5.69320388 24.96323084 8.984375 36.4453125 C9.70038565 38.95134979 10.36787501 41.47150002 11 44 C-9.46 44 -29.92 44 -51 44 C-51 33.11 -51 22.22 -51 11 C-46.215 10.113125 -41.43 9.22625 -36.5 8.3125 C-26.37427717 6.39753579 -16.52936321 4.32406841 -6.80078125 0.8828125 C-4 0 -4 0 0 0 Z " fill="#FCFCFC" transform="translate(51,597)"/>
<path d="M0 0 C4.29822725 2.91238311 8.15068715 6.03276355 10 11 C10.63257298 16.6269573 11.0935545 22.83608289 8.4375 28 C4.22219109 33.18807251 -1.25375488 37.5035997 -8.11254883 38.22094727 C-29.95415042 39.2677972 -29.95415042 39.2677972 -37.8515625 32.38671875 C-42.18087833 27.75989069 -43.76457409 23.43273437 -44.375 17.125 C-44.20462549 12.42625028 -42.88535793 8.72403531 -40 5 C-28.9174986 -4.50529532 -13.30062001 -5.99051547 0 0 Z " fill="#FCFBF9" transform="translate(606,363)"/>
</svg>
