<?xml version="1.0" encoding="UTF-8"?>
<svg version="1.1" xmlns="http://www.w3.org/2000/svg" width="1600" height="1200">
<path d="M0 0 C528 0 1056 0 1600 0 C1600 396 1600 792 1600 1200 C1072 1200 544 1200 0 1200 C0 804 0 408 0 0 Z " fill="#FEE711" transform="translate(0,0)"/>
<path d="M0 0 C1.85141602 -0.0309375 1.85141602 -0.0309375 3.74023438 -0.0625 C15.33686979 -0.11104688 26.52980314 1.55056811 37.125 6.4375 C37.79225098 6.73938232 38.45950195 7.04126465 39.14697266 7.35229492 C58.77613417 16.5668989 72.14448902 33.26951666 79.65625 53.23828125 C90.16471363 84.61422544 90.25591831 124.97155769 76.02636719 155.18457031 C71.8285913 163.60191739 66.52198538 170.55697914 59.9375 177.25 C59.39867187 177.87261719 58.85984375 178.49523437 58.3046875 179.13671875 C47.45885481 191.26334072 28.32843503 198.27417789 12.46850586 199.52319336 C8.95339251 199.61449179 5.45336359 199.61100805 1.9375 199.5625 C0.76960938 199.56572266 -0.39828125 199.56894531 -1.6015625 199.57226562 C-24.64364518 199.43176512 -44.57546145 192.82030642 -61.0625 176.25 C-73.0625 163.68944637 -73.0625 163.68944637 -73.0625 158.25 C-73.7225 158.25 -74.3825 158.25 -75.0625 158.25 C-78.73121963 150.87353181 -81.16518289 143.25498382 -83.0625 135.25 C-83.29332275 134.28151123 -83.29332275 134.28151123 -83.52880859 133.29345703 C-89.96178589 104.68931041 -88.12345933 71.02167487 -76.0625 44.25 C-75.63453125 43.27160156 -75.2065625 42.29320312 -74.765625 41.28515625 C-66.30199927 23.93472351 -49.66838911 11.1719735 -32.0625 4.25 C-21.34326815 0.64154571 -11.24500384 0.04596833 0 0 Z " fill="#020100" transform="translate(1204.0625,517.75)"/>
<path d="M0 0 C13.05990166 12.79739108 18.91980904 30.51433678 19.46498299 48.53724861 C19.49757297 52.01749757 19.49869859 55.49641796 19.48852539 58.97680664 C19.48867142 60.29485291 19.48881744 61.61289917 19.4889679 62.97088623 C19.48925302 66.55909571 19.48340259 70.14727127 19.47639394 73.73547292 C19.47011274 77.49506915 19.46955285 81.2546663 19.46836853 85.01426697 C19.46526921 92.12195932 19.45707479 99.22963616 19.44701904 106.3373217 C19.43581432 114.4341094 19.4303365 122.53089786 19.42532361 130.62769139 C19.41489092 147.27263691 19.39711562 163.91756586 19.375 180.5625 C11.455 180.5625 3.535 180.5625 -4.625 180.5625 C-5.285 177.819375 -5.945 175.07625 -6.625 172.25 C-6.83382812 171.38979248 -7.04265625 170.52958496 -7.2578125 169.64331055 C-7.42023438 168.96051025 -7.58265625 168.27770996 -7.75 167.57421875 C-7.91757812 166.87772217 -8.08515625 166.18122559 -8.2578125 165.46362305 C-8.625 163.5625 -8.625 163.5625 -8.625 160.5625 C-9.53378906 161.20316406 -10.44257812 161.84382812 -11.37890625 162.50390625 C-33.98825746 178.17008485 -58.04246615 186.85359219 -85.86816406 183.27392578 C-99.03636978 180.73896111 -110.9004482 171.75252582 -118.375 160.8125 C-126.42304611 147.08188078 -127.94107939 128.80474074 -124.94140625 113.35546875 C-122.99551065 106.03211893 -120.0315773 99.71842206 -115.625 93.5625 C-115.17382812 92.92828125 -114.72265625 92.2940625 -114.2578125 91.640625 C-103.61326247 78.04927864 -85.24181957 71.60066271 -68.625 69.5625 C-58.7638561 68.94574378 -48.87333884 69.18193938 -39 69.3125 C-36.33595108 69.33492589 -33.67191144 69.35085135 -31.0078125 69.3671875 C-24.54654738 69.4108076 -18.08584473 69.47737078 -11.625 69.5625 C-11.67746676 65.12408322 -11.77268112 60.68752531 -11.875 56.25 C-11.88917969 55.00669922 -11.90335938 53.76339844 -11.91796875 52.48242188 C-12.22082671 40.94353368 -14.83941215 30.41278362 -22.625 21.5625 C-34.20402201 11.22686291 -48.9022245 12.88252234 -63.625 13.5625 C-77.54184132 14.71897778 -90.74012472 19.40854989 -103.625 24.5625 C-106.595 17.3025 -109.565 10.0425 -112.625 2.5625 C-87.06961973 -22.99288027 -26.81144699 -22.84975557 0 0 Z " fill="#020100" transform="translate(668.625,532.4375)"/>
<path d="M0 0 C13.06091766 11.31815653 19.18208924 27.33960997 20.60546875 44.2578125 C20.74462372 48.78350463 20.73189612 53.30647257 20.71899414 57.83398438 C20.71871165 59.19475299 20.71887122 60.55552176 20.71943665 61.91629028 C20.71972219 65.58926666 20.71386489 69.26221002 20.70686269 72.93517876 C20.70058855 76.78153183 20.70002215 80.62788576 20.69883728 84.47424316 C20.6957359 91.74842368 20.68753866 99.02258907 20.67748779 106.29676294 C20.66628951 114.58215753 20.66080686 122.86755287 20.65579236 131.15295315 C20.645355 148.18791524 20.62757605 165.22286169 20.60546875 182.2578125 C12.68546875 182.2578125 4.76546875 182.2578125 -3.39453125 182.2578125 C-4.83203125 173.3828125 -4.83203125 173.3828125 -5.27905273 170.59033203 C-5.39837158 169.86442871 -5.51769043 169.13852539 -5.640625 168.390625 C-5.76107178 167.64699707 -5.88151855 166.90336914 -6.00561523 166.13720703 C-6.3270023 164.17896603 -6.3270023 164.17896603 -7.39453125 162.2578125 C-8.14734375 162.8146875 -8.90015625 163.3715625 -9.67578125 163.9453125 C-32.36788542 180.24837763 -56.03492021 188.33718779 -84.1953125 184.77734375 C-96.86197564 182.06657926 -108.25384827 174.44769937 -115.70703125 163.8828125 C-124.97685089 148.97385258 -125.46619915 130.51265238 -122.26953125 113.5703125 C-118.39394514 98.51653128 -109.09175447 87.9990204 -95.99609375 80.046875 C-70.21512313 66.38204958 -38.50628515 69.80417198 -10.39453125 70.2578125 C-10.43895168 65.56150092 -10.50905908 60.86649987 -10.60205078 56.17089844 C-10.63011707 54.57660403 -10.65140238 52.98217418 -10.66552734 51.38769531 C-10.77447774 39.78084668 -11.77739109 32.50719698 -19.39453125 23.2578125 C-19.39453125 22.5978125 -19.39453125 21.9378125 -19.39453125 21.2578125 C-20.05453125 21.2578125 -20.71453125 21.2578125 -21.39453125 21.2578125 C-21.39453125 20.5978125 -21.39453125 19.9378125 -21.39453125 19.2578125 C-22.39033203 19.07605469 -22.39033203 19.07605469 -23.40625 18.890625 C-24.28925781 18.72304688 -25.17226562 18.55546875 -26.08203125 18.3828125 C-26.95214844 18.22039063 -27.82226562 18.05796875 -28.71875 17.890625 C-31.39453125 17.2578125 -31.39453125 17.2578125 -33.69287109 16.23706055 C-38.71342446 14.41730277 -44.04652445 14.92099323 -49.33203125 14.9453125 C-51.16157349 14.95159668 -51.16157349 14.95159668 -53.02807617 14.95800781 C-61.58832995 15.06548979 -69.17107162 15.78868213 -77.39453125 18.2578125 C-79.22371094 18.74507812 -79.22371094 18.74507812 -81.08984375 19.2421875 C-86.03196335 20.58347257 -90.87135193 21.89984071 -95.51953125 24.0703125 C-98.39453125 25.2578125 -98.39453125 25.2578125 -100.44042969 25.07543945 C-103.04139117 23.98715609 -103.42383773 22.92187843 -104.53515625 20.36328125 C-104.88320313 19.57244141 -105.23125 18.78160156 -105.58984375 17.96679688 C-105.93789063 17.13470703 -106.2859375 16.30261719 -106.64453125 15.4453125 C-107.00804687 14.62482422 -107.3715625 13.80433594 -107.74609375 12.95898438 C-109.44166089 9.02922067 -110.39453125 6.62962819 -110.39453125 2.2578125 C-98.09496856 -4.09346889 -85.82870433 -8.43029066 -72.39453125 -11.7421875 C-70.8321875 -12.144375 -70.8321875 -12.144375 -69.23828125 -12.5546875 C-46.48500472 -17.37302841 -18.76374245 -14.34407392 0 0 Z " fill="#020200" transform="translate(1052.39453125,530.7421875)"/>
<path d="M0 0 C1.52004639 0.01135986 1.52004639 0.01135986 3.07080078 0.02294922 C10.19395123 0.18037326 16.27723089 0.85067682 22.5625 4.4375 C23.35398437 4.88480469 24.14546875 5.33210937 24.9609375 5.79296875 C38.87730535 14.41556876 46.26594026 27.63670842 50.015625 43.33447266 C56.348915 71.69095967 55.05946128 104.26649132 39.5625 129.4375 C33.78282981 138.26545577 24.51940766 144.0244282 14.44921875 146.77734375 C-0.41767401 149.30247428 -15.83923156 148.63614869 -28.75 140.25 C-38.04746535 133.12244552 -43.10924954 125.26491023 -47.4375 114.4375 C-47.91509766 113.29667969 -47.91509766 113.29667969 -48.40234375 112.1328125 C-53.00984853 99.98367055 -52.85025337 86.07723241 -52.8125 73.25 C-52.8112915 72.48569672 -52.81008301 71.72139343 -52.80883789 70.93392944 C-52.71523215 49.05672606 -49.78962055 27.82216849 -33.78515625 11.48828125 C-23.86018109 2.81837783 -12.98019962 -0.13590703 0 0 Z " fill="#FDE711" transform="translate(1204.4375,543.5625)"/>
<path d="M0 0 C0 92.07 0 184.14 0 279 C-10.56 279 -21.12 279 -32 279 C-32 189.24 -32 99.48 -32 7 C-15.05175781 2.48046875 -15.05175781 2.48046875 -8.6875 1.25 C-7.45386719 1.00765625 -6.22023438 0.7653125 -4.94921875 0.515625 C-2 0 -2 0 0 0 Z " fill="#000000" transform="translate(778,434)"/>
<path d="M0 0 C0 92.07 0 184.14 0 279 C-10.56 279 -21.12 279 -32 279 C-32 189.24 -32 99.48 -32 7 C-14.71679971 2.39114659 -14.71679971 2.39114659 -8.125 1.25 C-7.09439453 1.06244141 -7.09439453 1.06244141 -6.04296875 0.87109375 C-1.20887706 0 -1.20887706 0 0 0 Z " fill="#000000" transform="translate(392,434)"/>
<path d="M0 0 C5.09116653 1.60093322 8.84429124 4.7133754 13 7.9375 C19.28044034 12.78833212 19.28044034 12.78833212 26 17 C24.70891619 19.76655418 23.2935196 22.04962067 21.34765625 24.3984375 C20.82429687 25.03523437 20.3009375 25.67203125 19.76171875 26.328125 C19.20097656 27.00359375 18.64023437 27.6790625 18.0625 28.375 C16.87535508 29.81953475 15.68917258 31.26486093 14.50390625 32.7109375 C13.61469482 33.7952002 13.61469482 33.7952002 12.70751953 34.90136719 C10.26500456 37.9033487 7.87877773 40.94743381 5.5 44 C1.55858704 49.04887569 -2.45038471 54.03752749 -6.5 59 C-11.94870425 65.67983248 -17.30336132 72.42682901 -22.60888672 79.22070312 C-25.1287776 82.44375766 -27.65889317 85.65878237 -30.1875 88.875 C-31.1185308 90.05986345 -32.0495244 91.24475613 -32.98046875 92.4296875 C-33.64691406 93.27789063 -34.31335938 94.12609375 -35 95 C-33.47260916 98.42673696 -31.45668829 101.05841282 -29.0625 103.9375 C-28.25941406 104.90558594 -27.45632813 105.87367188 -26.62890625 106.87109375 C-23.4633544 110.6471023 -20.27838545 114.40671455 -17.08813477 118.16186523 C-13.44124553 122.45968956 -9.87073399 126.81595539 -6.3125 131.1875 C-3.73853608 134.31799666 -1.12430914 137.41172461 1.5 140.5 C5.62101634 145.34959381 9.66991354 150.25160806 13.6875 155.1875 C16.7157524 158.87050967 19.80227267 162.50227026 22.88989258 166.13549805 C27.3288881 171.3678727 31.67586039 176.67223292 36 182 C31.66084748 186.57583357 26.88273714 190.47149562 21.9375 194.375 C21.13505859 195.02855469 20.33261719 195.68210937 19.50585938 196.35546875 C18.34086914 197.27392578 18.34086914 197.27392578 17.15234375 198.2109375 C16.45101318 198.77087402 15.74968262 199.33081055 15.02709961 199.90771484 C13 201 13 201 10.89111328 200.82739258 C7.80195784 199.47583722 6.00371211 196.88033157 3.9375 194.3125 C3.45853271 193.73234131 2.97956543 193.15218262 2.48608398 192.55444336 C-1.35923431 187.86955239 -5.08601712 183.09088033 -8.80297852 178.30395508 C-12.56218968 173.48777738 -16.51443007 168.86261926 -20.51928711 164.25024414 C-23.9692988 160.25651996 -27.26852184 156.17197865 -30.5 152 C-34.74990358 146.51397062 -39.18215871 141.22144856 -43.72387695 135.9753418 C-47.27561514 131.86674118 -50.7088739 127.68216771 -54.078125 123.421875 C-57.66376837 118.90338132 -61.34132935 114.45938981 -65 110 C-66.68813434 107.93801828 -68.37528748 105.87523632 -70.0625 103.8125 C-71.19365234 102.42998047 -71.19365234 102.42998047 -72.34765625 101.01953125 C-73.16556641 100.01986328 -73.16556641 100.01986328 -74 99 C-72.53288393 94.57406325 -70.0994069 91.31429295 -67.1875 87.75 C-66.18770911 86.50217702 -65.18905943 85.25343902 -64.19140625 84.00390625 C-63.40660889 83.02381592 -63.40660889 83.02381592 -62.60595703 82.02392578 C-59.89982687 78.61349418 -57.26304142 75.15070134 -54.625 71.6875 C-54.08190186 70.97561523 -53.53880371 70.26373047 -52.97924805 69.53027344 C-51.87160482 68.07819311 -50.7642652 66.62588115 -49.65722656 65.17333984 C-46.9420536 61.6125753 -44.22075902 58.05649684 -41.5 54.5 C-40.41663645 53.08335644 -39.33330314 51.66668976 -38.25 50.25 C-31.75 41.75 -31.75 41.75 -30.12402344 39.6237793 C-29.04387277 38.21123711 -27.9637943 36.79863971 -26.88378906 35.38598633 C-24.12735911 31.78075228 -21.36956855 28.17657239 -18.609375 24.57421875 C-12.36075266 16.41627008 -6.14280427 8.23802434 0 0 Z " fill="#010100" transform="translate(864,516)"/>
<path d="M0 0 C3.16416221 0.60533696 5.13877137 1.61957046 7.6796875 3.58203125 C8.70255859 4.36223633 8.70255859 4.36223633 9.74609375 5.15820312 C10.44863281 5.70412109 11.15117187 6.25003906 11.875 6.8125 C16.49590714 10.36605475 21.10487276 13.83121074 26 17 C24.55831542 21.43908529 22.11216919 24.50305947 19.0625 27.9375 C15.127781 32.47481608 11.30918679 37.06932057 7.625 41.8125 C3.64484256 46.92677678 -0.40109108 51.98037412 -4.5 57 C-8.99952298 62.51313727 -13.43260121 68.07112629 -17.81176758 73.68017578 C-23.43895614 80.86904059 -29.22467632 87.93004891 -35 95 C-33.09685015 99.08006684 -30.39165575 102.20610735 -27.4375 105.5625 C-26.34276361 106.82206003 -25.24902202 108.08248534 -24.15625 109.34375 C-23.61742187 109.96507812 -23.07859375 110.58640625 -22.5234375 111.2265625 C-20.4521603 113.63774159 -18.44078991 116.09467909 -16.4375 118.5625 C-13.17221829 122.58357928 -9.85447127 126.55349519 -6.5 130.5 C-3.14552873 134.44650481 0.17221829 138.41642072 3.4375 142.4375 C6.89274762 146.68393133 10.42715324 150.8528055 14 155 C21.58135601 163.80623902 28.92221884 172.7829538 36 182 C31.91881485 186.25689176 27.5186513 189.97974876 22.9375 193.6875 C21.87692383 194.55858398 21.87692383 194.55858398 20.79492188 195.44726562 C19.7652832 196.28354492 19.7652832 196.28354492 18.71484375 197.13671875 C18.09730225 197.63905029 17.47976074 198.14138184 16.84350586 198.65893555 C14.97162658 200.02064034 13.09612479 201.02647871 11 202 C5.38205213 195.45840499 -0.1531434 188.87773037 -5.4375 182.0625 C-9.64061074 176.64636052 -14.02508397 171.42619688 -18.51928711 166.25024414 C-21.9692988 162.25651996 -25.26852184 158.17197865 -28.5 154 C-32.74990358 148.51397062 -37.18215871 143.22144856 -41.72387695 137.9753418 C-45.27561514 133.86674118 -48.7088739 129.68216771 -52.078125 125.421875 C-54.17343124 122.78144843 -56.30139624 120.17001977 -58.4375 117.5625 C-59.18 116.655 -59.9225 115.7475 -60.6875 114.8125 C-62.28504662 112.86953789 -63.88967764 110.93238683 -65.5 109 C-66.304375 108.030625 -67.10875 107.06125 -67.9375 106.0625 C-68.66839844 105.18722656 -69.39929688 104.31195312 -70.15234375 103.41015625 C-71.75674224 101.31731509 -72.93613161 99.40066637 -74 97 C-73.27296875 96.1028125 -72.5459375 95.205625 -71.796875 94.28125 C-65.93710465 87.02005894 -60.2113415 79.68264612 -54.64355469 72.1953125 C-50.82930253 67.07676856 -46.93188217 62.02861374 -43 57 C-38.10426846 50.73632382 -33.29065381 44.42026477 -28.54345703 38.04345703 C-24.72576232 32.92999853 -20.81149437 27.89735058 -16.875 22.875 C-11.02359504 15.40330509 -5.43007402 7.78227198 0 0 Z " fill="#010100" transform="translate(478,516)"/>
<path d="M0 0 C2.0995997 0.01508403 4.19920997 0.02876581 6.29882812 0.04101562 C11.38698482 0.0737035 16.4746223 0.1252776 21.5625 0.1875 C21.84255518 6.59107051 22.03448399 12.99305342 22.16674805 19.40136719 C22.22190169 21.57839956 22.29685098 23.75502741 22.39233398 25.93066406 C23.16326206 43.95471504 23.16326206 43.95471504 19.33520508 49.29418945 C16.49070391 51.40141786 13.81994812 52.82052782 10.5625 54.1875 C9.2190364 54.96195826 7.88082076 55.7456765 6.55078125 56.54296875 C5.33297078 57.16837042 4.107552 57.7791769 2.875 58.375 C2.20057861 58.70177734 1.52615723 59.02855469 0.83129883 59.36523438 C-14.72723577 66.68519915 -31.76511828 71.00023496 -48.625 65.0390625 C-50.4375 64.1875 -50.4375 64.1875 -53.4375 62.1875 C-53.4375 61.5275 -53.4375 60.8675 -53.4375 60.1875 C-54.4275 59.8575 -55.4175 59.5275 -56.4375 59.1875 C-63.37891257 51.09244421 -62.12723631 40.10839575 -61.4375 30.1875 C-60.70233496 21.01490233 -57.11234818 15.78068488 -50.625 9.4375 C-35.68320131 -1.10965201 -17.4718179 -0.22021554 0 0 Z " fill="#FBE511" transform="translate(1021.4375,622.8125)"/>
<path d="M0 0 C2.11327701 0.01004933 4.22655864 0.01917173 6.33984375 0.02734375 C11.47667817 0.04920371 16.61328721 0.08362623 21.75 0.125 C22.05584726 6.51005281 22.26501701 12.89320394 22.40917969 19.28393555 C22.46930009 21.45424958 22.55102911 23.62408204 22.65527344 25.79272461 C23.5444219 44.77430078 23.5444219 44.77430078 19.28686523 49.47192383 C16.2050573 51.83098448 13.27570383 53.5193627 9.75 55.125 C8.66887939 55.74000366 8.66887939 55.74000366 7.56591797 56.36743164 C5.75390625 57.39453125 5.75390625 57.39453125 2.3125 58.9375 C1.69125244 59.21609863 1.07000488 59.49469727 0.42993164 59.78173828 C-13.5095277 65.86885389 -30.02454933 70.08874562 -45.21484375 66.40625 C-47.40433556 65.47805518 -49.27953901 64.45034347 -51.25 63.125 C-52.343125 62.444375 -53.43625 61.76375 -54.5625 61.0625 C-61.88616569 53.05756308 -62.01434586 42.99672249 -61.62890625 32.66796875 C-61.05845895 23.98965924 -58.26998719 17.15612393 -52.2421875 10.84375 C-37.73145781 -1.67531091 -17.88923735 -0.14844678 0 0 Z " fill="#FCE511" transform="translate(635.25,622.875)"/>
<path d="M0 0 C4.7497948 4.23630347 7.77223634 8.43170266 8.1875 14.9375 C8.125625 15.618125 8.06375 16.29875 8 17 C5.2027092 14.93243723 4.97307727 13.85559629 4.3125 10.3125 C4.209375 9.219375 4.10625 8.12625 4 7 C3.34 7 2.68 7 2 7 C1.87625 6.195625 1.7525 5.39125 1.625 4.5625 C1.315625 3.2940625 1.315625 3.2940625 1 2 C0.34 1.67 -0.32 1.34 -1 1 C-0.67 0.67 -0.34 0.34 0 0 Z " fill="#A5960B" transform="translate(1034,555)"/>
</svg>
