<?xml version="1.0" encoding="UTF-8"?>
<svg version="1.1" xmlns="http://www.w3.org/2000/svg" width="1600" height="1200">
<path d="M0 0 C528 0 1056 0 1600 0 C1600 396 1600 792 1600 1200 C1072 1200 544 1200 0 1200 C0 804 0 408 0 0 Z " fill="#000000" transform="translate(0,0)"/>
<path d="M0 0 C12.21 0 24.42 0 37 0 C46.19306171 14.44623983 55.35071835 28.90722571 64.33422852 43.48461914 C67.51512339 48.63603958 70.75460809 53.7418866 74.0625 58.8125 C76.64609166 62.7959286 78.98419721 66.72148162 80.98242188 71.02416992 C82.09239027 73.17939406 83.37144728 75.1139607 84.7421875 77.11328125 C87.98937541 81.93129324 90.97776073 86.8768542 93.9375 91.875 C98.79880102 100.03052624 103.79043358 108.07781908 108.9765625 116.03125 C109.62367188 117.0315625 110.27078125 118.031875 110.9375 119.0625 C111.52402344 119.96097656 112.11054688 120.85945312 112.71484375 121.78515625 C114 124 114 124 114 126 C114.66 126 115.32 126 116 126 C116.226875 125.360625 116.45375 124.72125 116.6875 124.0625 C119.75713315 116.90002264 123.98710546 110.25231226 128.0625 103.625 C128.53437744 102.85534912 129.00625488 102.08569824 129.49243164 101.29272461 C134.41307407 93.28969917 139.43328056 85.35012877 144.46630859 77.41748047 C154.05710766 62.29998726 163.50400414 47.10538475 172.8125 31.8125 C173.4120752 30.82773682 174.01165039 29.84297363 174.62939453 28.82836914 C177.51730535 24.08405539 180.401864 19.33779706 183.27734375 14.5859375 C184.26820081 12.95310779 185.25908466 11.32029434 186.25 9.6875 C186.7035083 8.93509033 187.1570166 8.18268066 187.62426758 7.4074707 C190.77388696 2.22611304 190.77388696 2.22611304 193 0 C205.21 0 217.42 0 230 0 C230 71.94 230 143.88 230 218 C219.77 218 209.54 218 199 218 C198.67 161.9 198.34 105.8 198 48 C188.98662581 62.64673306 179.98152732 77.28709317 171.0859375 92.00390625 C169.1033105 95.25538963 167.05213343 98.43860792 164.9140625 101.58984375 C162.48722596 105.18512779 160.37136334 108.87376592 158.30029297 112.68212891 C155.34729232 117.94607712 152.01552812 122.99370134 148.68383789 128.02392578 C145.41182812 133.00680389 142.4927208 137.90751167 139.9921875 143.32421875 C133.06367169 157.53950534 133.06367169 157.53950534 125.69726562 160.18701172 C117.02130434 161.85853766 105.66473032 162.72651446 97.93359375 157.640625 C94.74644835 154.28230299 93.2144943 150.31579121 91.73339844 145.98681641 C90.65276718 143.05932734 89.01941707 140.60217766 87.3125 138 C84.79395715 133.92426665 82.2924641 129.83915858 79.80859375 125.7421875 C73.34585961 115.083728 66.81691676 104.47658857 60.13671875 93.953125 C56.52230849 88.25656332 52.9482145 82.53496223 49.375 76.8125 C48.78984619 75.87543213 48.20469238 74.93836426 47.60180664 73.97290039 C45.73445374 70.98198605 43.8672302 67.99099094 42 65 C38.7 59.72 35.4 54.44 32 49 C31.67 104.77 31.34 160.54 31 218 C20.77 218 10.54 218 0 218 C0 146.06 0 74.12 0 0 Z " fill="#FCFCFC" transform="translate(146,491)"/>
<path d="M0 0 C11.55 0 23.1 0 35 0 C45.12112676 13.49483568 45.12112676 13.49483568 48.68359375 18.98828125 C49.06555908 19.57447235 49.44752441 20.16066345 49.84106445 20.76461792 C51.04356814 22.61154323 52.24052032 24.4619912 53.4375 26.3125 C54.28018367 27.60815194 55.12336858 28.90347801 55.96704102 30.19848633 C57.20755039 32.10264455 58.44785692 34.00692801 59.68663025 35.91221619 C63.68982359 42.06886368 67.75876892 48.17960775 71.84863281 54.27880859 C73.07797565 56.11656665 74.30124143 57.95826303 75.5234375 59.80078125 C83.02971342 71.10789029 90.63831136 82.34477955 98.26293945 93.57226562 C102.66242843 100.05338108 107.0450168 106.54510063 111.390625 113.0625 C111.99410263 113.96756538 111.99410263 113.96756538 112.60977173 114.89091492 C123 130.50076065 123 130.50076065 123 133 C123.66 133 124.32 133 125 133 C126.375 134.87890625 126.375 134.87890625 128 137.5625 C131.33654545 142.96519075 134.81164343 148.25361135 138.359375 153.51977539 C141.34033723 157.96176972 144.16050867 162.45681388 147 167 C147.33 111.89 147.66 56.78 148 0 C158.23 0 168.46 0 179 0 C179 71.94 179 143.88 179 218 C167.45 218 155.9 218 144 218 C139.545 211.07 139.545 211.07 135 204 C132.86355306 200.76379997 130.72145351 197.53347914 128.5625 194.3125 C127.34624899 192.4935599 126.13010868 190.67454579 124.9140625 188.85546875 C124.27887695 187.90591309 123.64369141 186.95635742 122.98925781 185.97802734 C120.93384292 182.90095925 118.88418613 179.82012368 116.8359375 176.73828125 C108.20747641 163.76118432 99.5156643 150.8292323 90.76544189 137.93389893 C84.22136654 128.28957641 77.71212883 118.62382283 71.26904297 108.91162109 C68.73067255 105.08795037 66.18173426 101.27131524 63.63476562 97.45336914 C61.64758879 94.47379239 59.66269117 91.49276298 57.68359375 88.5078125 C50.69746697 77.98226064 43.57667954 67.54962154 36.4453125 57.12207031 C35.28700544 55.4213938 34.14138591 53.71207886 33 52 C32.67 106.78 32.34 161.56 32 218 C21.44 218 10.88 218 0 218 C0 146.06 0 74.12 0 0 Z " fill="#FAFAFA" transform="translate(891,491)"/>
<path d="M0 0 C11.88 0 23.76 0 36 0 C38.09994191 5.03526217 40.1996641 10.07061481 42.29882812 15.10620117 C43.01256635 16.81816901 43.72643219 18.53008364 44.44042969 20.24194336 C45.46843728 22.70672758 46.49598129 25.17170464 47.5234375 27.63671875 C47.84122162 28.39836838 48.15900574 29.16001801 48.48641968 29.94474792 C52.83014881 40.36947922 52.83014881 40.36947922 53.80078125 43.97265625 C55.46122866 49.95123513 57.90711093 55.67551038 60.1875 61.4375 C60.43299591 62.06049988 60.67849182 62.68349976 60.931427 63.32537842 C64.27139719 71.7979297 67.71701039 80.20698466 71.46484375 88.5078125 C72.63782407 91.17611888 73.74687727 93.84223213 74.82055664 96.55029297 C76.97220516 101.94768498 79.18269802 107.31940095 81.40625 112.6875 C82.01611755 114.16222778 82.01611755 114.16222778 82.63830566 115.66674805 C83.92499069 118.77805841 85.21240093 121.88906781 86.5 125 C88.19858032 129.10389252 89.89639299 133.20810139 91.59375 137.3125 C92.16736267 138.69731567 92.16736267 138.69731567 92.75256348 140.11010742 C99.8690181 157.31920152 99.8690181 157.31920152 102.1875 164.3125 C102.51105469 165.27800781 102.83460938 166.24351562 103.16796875 167.23828125 C103.94434525 169.81526802 104.52268777 172.3530867 105 175 C105.66 175 106.32 175 107 175 C107.59748047 176.87945313 107.59748047 176.87945313 108.20703125 178.796875 C108.74178576 180.44804683 109.27696428 182.09908138 109.8125 183.75 C110.07353516 184.575 110.33457031 185.4 110.60351562 186.25 C111.96666732 190.42360025 113.27762754 193.52788325 116 197 C116.9164738 199.33061734 117.76606669 201.68818002 118.5625 204.0625 C119.81135007 207.77014523 120.82705609 210.74058413 123 214 C123 215.32 123 216.64 123 218 C112.44 218 101.88 218 91 218 C77.44831152 185.2142868 77.44831152 185.2142868 71.125 169.5 C70.70299316 168.45787354 70.28098633 167.41574707 69.84619141 166.34204102 C69.27650635 164.91976196 69.27650635 164.91976196 68.6953125 163.46875 C68.36547363 162.64826172 68.03563477 161.82777344 67.69580078 160.98242188 C67 159 67 159 67 157 C34.66 157 2.32 157 -31 157 C-31.33 158.65 -31.66 160.3 -32 162 C-32.4519621 163.30657802 -32.94252743 164.60045943 -33.47119141 165.87792969 C-33.76885406 166.6034906 -34.06651672 167.32905151 -34.37319946 168.07659912 C-34.69605927 168.85054016 -35.01891907 169.6244812 -35.3515625 170.421875 C-35.68868256 171.24012756 -36.02580261 172.05838013 -36.37313843 172.90142822 C-37.45286716 175.51938744 -38.53880132 178.13471949 -39.625 180.75 C-40.33244726 182.46206774 -41.03948229 184.17430588 -41.74609375 185.88671875 C-43.14122814 189.26594201 -44.5387667 192.64415383 -45.93847656 196.02148438 C-48.97179082 203.34238565 -51.98476625 210.6716366 -55 218 C-65.56 218 -76.12 218 -87 218 C-83.69395018 208.08185053 -83.69395018 208.08185053 -81.6875 204 C-79.10889617 198.50104966 -77.12575718 192.86447051 -75.23120117 187.1015625 C-74.06522031 183.6460854 -72.81148671 180.51719721 -70.94140625 177.37890625 C-69.07368687 174.12824776 -68.00295924 171.28292977 -67 167.6875 C-65.31775814 161.95347716 -63.30536177 156.50651834 -61 151 C-56.87708326 141.14118784 -52.80729786 131.26094449 -48.75 121.375 C-48.40939545 120.54560913 -48.06879089 119.71621826 -47.71786499 118.86169434 C-43.56631432 108.74983259 -39.43803125 98.62896108 -35.34765625 88.4921875 C-34.9666275 87.54834198 -34.58559875 86.60449646 -34.19302368 85.63204956 C-32.34943157 81.06389199 -30.50888251 76.49454154 -28.67285156 71.92333984 C-25.60231062 64.29555457 -22.52350803 56.69658957 -19.03271484 49.24829102 C-16.30367571 43.30698572 -14.02825909 37.21154346 -12 31 C-9.50367255 23.92707224 -6.81575991 16.95140727 -4 10 C-2.68 6.7 -1.36 3.4 0 0 Z " fill="#FBFBFB" transform="translate(1351,491)"/>
<path d="M0 0 C10.56 0 21.12 0 32 0 C32.01458252 4.16246338 32.02916504 8.32492676 32.04418945 12.61352539 C32.09464456 26.40376495 32.16111124 40.19388897 32.23571491 53.98401737 C32.2805365 62.34065038 32.31998197 70.69724207 32.34643555 79.05395508 C32.36952676 86.34406881 32.40304711 93.63405027 32.44870156 100.92405885 C32.47248506 104.77826531 32.49131058 108.63234198 32.49761391 112.48661995 C32.503733 116.12695921 32.52397294 119.76696702 32.55427551 123.40718269 C32.56703023 125.354454 32.56550463 127.30180319 32.5632782 129.24911499 C32.75747583 147.81370655 37.43128157 164.3772394 50.67578125 177.9140625 C62.15084637 188.21269237 77.01448617 189.87222687 91.94921875 189.34765625 C104.18655875 188.5399397 114.92610596 183.19526821 123 174 C123.90648157 172.73673997 124.8020679 171.465602 125.6875 170.1875 C126.8321875 168.6096875 126.8321875 168.6096875 128 167 C128.66 167 129.32 167 130 167 C130.19335938 166.28714844 130.38671875 165.57429687 130.5859375 164.83984375 C130.84632813 163.88207031 131.10671875 162.92429687 131.375 161.9375 C131.78685547 160.4215625 131.78685547 160.4215625 132.20703125 158.875 C132.80080705 156.72219709 133.42424334 154.57753703 134.0625 152.4375 C136.57333562 143.23110273 137.30253479 134.6486925 137.31884766 125.10498047 C137.3281654 123.73405885 137.33833676 122.36314281 137.34928894 120.99223328 C137.37639521 117.30080616 137.39168026 113.60941678 137.40471697 109.91791677 C137.4204331 106.04884142 137.4471959 102.17984218 137.4727478 98.31082153 C137.51938633 90.99778615 137.55620228 83.6847362 137.58942068 76.37162888 C137.62774805 68.04019023 137.67713012 59.70882831 137.72740483 51.37745452 C137.8305025 34.25168641 137.91837548 17.12588597 138 0 C148.56 0 159.12 0 170 0 C170.06797861 17.94286634 170.12313305 35.88562108 170.15543652 53.82858086 C170.17084079 62.16164671 170.19180553 70.49462628 170.22631836 78.82763672 C170.25641965 86.09902292 170.27562166 93.37034658 170.28226548 100.64179337 C170.28614303 104.48441772 170.29511757 108.3268633 170.31719017 112.16942978 C170.48421472 142.43420524 168.4938787 172.51359211 147 196 C146.39800781 196.69351563 145.79601562 197.38703125 145.17578125 198.1015625 C133.60701437 210.66470976 117.44776655 217.08470725 101 220 C100.08476563 220.18433594 99.16953125 220.36867188 98.2265625 220.55859375 C75.01742505 223.73369367 52.04909565 218.83860772 33 205 C25.00459716 198.85895264 19.11894528 191.61812768 14 183 C14 182.34 14 181.68 14 181 C13.34 181 12.68 181 12 181 C4.36618788 161.00568661 -0.35509971 142.42402516 -0.22705078 120.90454102 C-0.22734283 119.58561859 -0.22763489 118.26669617 -0.22793579 116.9078064 C-0.22850178 113.34470181 -0.21687207 109.78173618 -0.20278788 106.21866345 C-0.19015247 102.47512372 -0.18910005 98.73157962 -0.18673706 94.98802185 C-0.18055947 87.92300571 -0.16419991 80.85805263 -0.14403808 73.79306406 C-0.12156213 65.739674 -0.11065646 57.68628068 -0.10064721 49.63286698 C-0.07982967 33.08853542 -0.04320092 16.54429055 0 0 Z " fill="#FAFAFA" transform="translate(423,491)"/>
<path d="M0 0 C12.18488227 9.5842283 19.23434461 22.62632712 22.5625 37.70703125 C23.09415143 42.46420395 22.9375 47.27571138 22.9375 52.0625 C11.7175 52.0625 0.4975 52.0625 -11.0625 52.0625 C-11.5575 46.1225 -11.5575 46.1225 -12.0625 40.0625 C-14.15071956 32.06341102 -16.94791974 27.24754721 -24.0625 23.0625 C-24.0625 22.4025 -24.0625 21.7425 -24.0625 21.0625 C-36.55546345 17.52317815 -51.78338675 15.02098472 -63.72265625 21.5078125 C-69.27347082 25.06991797 -72.21689503 27.71823292 -74.0625 34.0625 C-74.454375 34.949375 -74.84625 35.83625 -75.25 36.75 C-77.17163876 44.58437341 -77.03967703 52.91324251 -73.0625 60.0625 C-67.56809684 68.14250464 -59.76411338 72.09079815 -50.67578125 75.1328125 C-48.36348785 75.95542211 -46.33802499 76.89442538 -44.1875 78.0625 C-40.89847959 79.78690544 -37.62954351 80.84520243 -34.0625 81.875 C-16.73928507 87.02785444 -0.94727217 95.22475255 11.9375 108.0625 C12.49953125 108.60132813 13.0615625 109.14015625 13.640625 109.6953125 C24.81158113 121.39541918 26.34765455 135.50446892 26.14453125 150.8515625 C25.64121182 168.14969402 17.04225724 181.37099194 4.9375 193.0625 C-9.80945758 206.76910784 -29.01549586 211.77504927 -48.73193359 211.53100586 C-67.05789375 210.84837186 -84.52493893 203.96979184 -97.5078125 190.8515625 C-110.55711343 176.605078 -116.0625 160.09992473 -116.0625 141.0625 C-104.8425 141.0625 -93.6225 141.0625 -82.0625 141.0625 C-81.5675 148.4875 -81.5675 148.4875 -81.0625 156.0625 C-75.50731827 167.17286345 -70.19121877 174.84286659 -58.0625 179.0625 C-53.96625213 179.47376987 -49.86488183 179.3868996 -45.75 179.375 C-44.09581055 179.39916992 -44.09581055 179.39916992 -42.40820312 179.42382812 C-32.68533814 179.42963282 -24.76388126 177.21722705 -17.0625 171.0625 C-9.18364002 162.77457957 -7.50595678 154.88958451 -7.78515625 143.62109375 C-8.44064141 135.21057288 -11.85658784 129.75779914 -18.0625 124.0625 C-21.27878365 122.07291473 -21.27878365 122.07291473 -24.0625 121.0625 C-24.0625 120.4025 -24.0625 119.7425 -24.0625 119.0625 C-24.84625 118.98 -25.63 118.8975 -26.4375 118.8125 C-29.37285961 118.20518422 -31.60959744 117.50739 -34.33984375 116.375 C-38.63330271 114.6253489 -42.9528584 112.95780905 -47.29296875 111.328125 C-95.20574416 93.25871813 -95.20574416 93.25871813 -107 68.1875 C-112.36924846 55.99293571 -111.92283309 39.31592765 -108 26.75 C-105.53585847 20.48899815 -102.32744663 15.24463946 -98.0625 10.0625 C-97.49402344 9.34449219 -96.92554688 8.62648438 -96.33984375 7.88671875 C-73.62895427 -19.58362821 -27.67531344 -19.24744021 0 0 Z " fill="#FAFAFA" transform="translate(746.0625,500.9375)"/>
<path d="M0 0 C4.18534255 3.68359096 7.88946053 7.3666735 11.296875 11.7890625 C12.286875 13.0575 12.286875 13.0575 13.296875 14.3515625 C19.76508598 25.46880012 21.296875 38.14201107 21.296875 50.7890625 C10.406875 50.7890625 -0.483125 50.7890625 -11.703125 50.7890625 C-12.033125 46.4990625 -12.363125 42.2090625 -12.703125 37.7890625 C-16.48055745 28.12327946 -21.44742302 23.14339943 -30.61328125 18.55078125 C-39.41356731 15.34320035 -52.46966184 15.12961693 -61.328125 18.4140625 C-68.72478703 21.98008525 -73.81606931 26.82940313 -76.75390625 34.55078125 C-79.00634577 42.23502964 -78.76922345 50.64582909 -75.0234375 57.796875 C-69.61710749 65.95435519 -61.93146253 70.36906288 -52.86328125 73.57421875 C-46.34952027 75.91035709 -39.86445108 78.31554883 -33.39770508 80.77832031 C-32.06671397 81.28280496 -30.73403435 81.78285851 -29.3996582 82.27832031 C-8.66106275 89.98669672 9.96924753 100.79789133 20.9609375 120.8203125 C26.62832013 133.86479095 26.40806591 150.57509614 22.234375 164.0390625 C14.4652705 183.51622925 2.32325336 196.05991743 -16.72265625 204.52734375 C-28.17199052 209.37417857 -38.37727234 210.17129555 -50.703125 209.84228516 C-52.28608365 209.80016052 -53.86964589 209.78077755 -55.453125 209.76953125 C-68.19734853 209.17214577 -81.69242277 203.41545896 -91.703125 195.7890625 C-92.404375 195.27988281 -93.105625 194.77070312 -93.828125 194.24609375 C-106.40632034 184.2965447 -113.82251999 168.17848594 -116.4765625 152.64453125 C-116.81554867 148.37213662 -116.703125 144.07488418 -116.703125 139.7890625 C-105.813125 139.7890625 -94.923125 139.7890625 -83.703125 139.7890625 C-83.208125 146.2240625 -83.208125 146.2240625 -82.703125 152.7890625 C-79.08903084 163.09592362 -73.48692396 170.67407965 -63.703125 175.7890625 C-53.50929523 180.43058293 -40.24508253 180.47564097 -29.703125 176.7890625 C-19.54277606 172.60647805 -14.56858056 166.51997362 -9.703125 156.7890625 C-9.40913738 153.42097814 -9.42506199 150.04347904 -9.390625 146.6640625 C-9.36162109 145.73851562 -9.33261719 144.81296875 -9.30273438 143.859375 C-9.24678304 137.76498297 -9.86443421 132.70263842 -13.703125 127.7890625 C-23.03319717 119.25370974 -35.28823453 114.95719058 -46.9810791 110.58996582 C-50.37551691 109.31896896 -53.75779262 108.01635143 -57.140625 106.71484375 C-57.80048401 106.46121063 -58.46034302 106.20757751 -59.14019775 105.94625854 C-80.16185961 97.84318923 -96.68822853 89.36384245 -107.5546875 68.44140625 C-109.21793357 64.60009984 -109.9840813 60.90722188 -110.703125 56.7890625 C-111.033125 56.1290625 -111.363125 55.4690625 -111.703125 54.7890625 C-111.78685159 53.26757924 -111.81042527 51.74250472 -111.80078125 50.21875 C-111.79755859 49.32285156 -111.79433594 48.42695312 -111.79101562 47.50390625 C-111.78263672 46.56675781 -111.77425781 45.62960937 -111.765625 44.6640625 C-111.76111328 43.71917969 -111.75660156 42.77429688 -111.75195312 41.80078125 C-111.74014857 39.46347863 -111.72368259 37.12630189 -111.703125 34.7890625 C-111.043125 34.7890625 -110.383125 34.7890625 -109.703125 34.7890625 C-109.70054688 34.12261719 -109.69796875 33.45617187 -109.6953125 32.76953125 C-109.159366 19.99613961 -102.45923809 11.59191641 -93.703125 2.7890625 C-92.92582031 1.95955078 -92.92582031 1.95955078 -92.1328125 1.11328125 C-68.99940353 -21.35398243 -24.02085481 -19.64711535 0 0 Z " fill="#FBFBFB" transform="translate(1224.703125,502.2109375)"/>
<path d="M0 0 C10.23 0 20.46 0 31 0 C31 71.94 31 143.88 31 218 C20.77 218 10.54 218 0 218 C0 146.06 0 74.12 0 0 Z " fill="#FDFDFD" transform="translate(812,491)"/>
<path d="M0 0 C0.66 0 1.32 0 2 0 C3.58455366 3.7911578 5.16741513 7.58301997 6.75 11.375 C7.1934375 12.43589844 7.636875 13.49679687 8.09375 14.58984375 C10.07860711 19.34766301 12.05367941 24.10736017 13.95703125 28.8984375 C15.54499478 32.89201734 17.18413286 36.86214515 18.83984375 40.828125 C19.34580078 42.04113281 19.85175781 43.25414062 20.37304688 44.50390625 C21.15218193 46.37100512 21.9323163 48.23765477 22.71557617 50.10302734 C26.04899346 58.04733919 29.14248448 66.01273776 31.92407227 74.16308594 C32.93259417 77.14112041 32.93259417 77.14112041 35 80 C35.495 83.96 35.495 83.96 36 88 C12.9 88 -10.2 88 -34 88 C-32.89229145 81.35374868 -32.89229145 81.35374868 -31.3125 78.1875 C-28.89821515 73.02532003 -27.0876663 67.69013665 -25.2824707 62.29174805 C-23.86729647 58.1479605 -22.17330487 54.37772066 -20.15673828 50.48071289 C-18.33490664 46.57365689 -16.90119395 42.52309787 -15.4135437 38.48060608 C-12.4981142 30.57968227 -9.31478078 22.79325519 -6.125 15 C-5.52583618 13.53133381 -4.92687709 12.06258409 -4.328125 10.59375 C-2.88775903 7.06153899 -1.44468276 3.5304475 0 0 Z " fill="#050505" transform="translate(1368,529)"/>
<path d="M0 0 C0.66 0.33 1.32 0.66 2 1 C-2.95 5.95 -7.9 10.9 -13 16 C-13 10.79628205 -8.49504984 7.5790344 -5 4 C-3.37707762 2.6137538 -1.7331451 1.24569804 0 0 Z " fill="#D5D5D5" transform="translate(660,499)"/>
<path d="M0 0 C0.66 0.33 1.32 0.66 2 1 C-0.97 3.97 -3.94 6.94 -7 10 C-7 7 -7 7 -4.625 4.4375 C-3.75875 3.633125 -2.8925 2.82875 -2 2 C-1.34 1.34 -0.68 0.68 0 0 Z " fill="#3F3F3F" transform="translate(680,523)"/>
</svg>
