<svg width="374" height="260" viewBox="0 0 374 260" fill="none" xmlns="http://www.w3.org/2000/svg">
<rect width="374" height="260" fill="#E83827"/>
<g clip-path="url(#clip0_372_2495)">
<path d="M164.669 111C161.616 111 159.144 113.47 159.144 116.506V148.614H170.181V116.506C170.181 113.457 167.709 111 164.669 111Z" fill="white"/>
<path d="M148.067 111H132.071C129.018 111 126.558 113.47 126.558 116.506C126.558 119.542 129.031 122.012 132.071 122.012H143.108C144.332 122.012 145.324 123.002 145.324 124.224V148.601H156.362V119.297C156.362 114.718 152.652 111 148.067 111Z" fill="white"/>
<path d="M193.867 138.091C189.295 138.091 185.586 134.387 185.586 129.82C185.586 125.253 189.295 121.548 193.867 121.548C198.439 121.548 202.149 125.253 202.149 129.82C202.149 134.387 198.439 138.091 193.867 138.091ZM220.837 111C217.785 111 215.325 113.47 215.325 116.506V124.559H211.963C209.67 116.737 202.445 111 193.867 111C183.473 111 175.037 119.426 175.037 129.807C175.037 140.188 183.473 148.614 193.867 148.614C202.252 148.614 209.348 143.147 211.796 135.583H215.325V148.614H226.362V116.506C226.362 113.457 223.89 111 220.837 111Z" fill="white"/>
<path d="M240.079 124.237C240.079 123.015 241.071 122.024 242.295 122.024H245.811V137.59H242.295C241.071 137.59 240.079 136.599 240.079 135.377V124.224V124.237ZM229.003 119.297V140.33C229.003 144.909 232.725 148.627 237.31 148.627H258.652V137.603H255.69V122.037H258.652V111H237.31C232.725 111 229.003 114.718 229.003 119.297Z" fill="white"/>
<path d="M295.423 137.847C292.345 137.847 289.846 140.343 289.846 143.417C289.846 146.492 292.345 148.987 295.423 148.987C298.501 148.987 301 146.492 301 143.417C301 140.343 298.501 137.847 295.423 137.847Z" fill="white"/>
<path d="M109.493 132.29C109.596 131.479 109.66 130.656 109.66 129.82C109.66 128.984 109.596 128.186 109.506 127.389H113.318V132.303H109.493V132.29ZM90.83 138.091C86.2578 138.091 82.5484 134.387 82.5484 129.82C82.5484 125.253 86.2578 121.548 90.83 121.548C95.4023 121.548 99.1116 125.253 99.1116 129.82C99.1116 134.387 95.4023 138.091 90.83 138.091ZM118.843 111C115.791 111 113.331 113.47 113.331 116.506V117.818H105.358C101.894 113.663 96.6774 111 90.83 111C80.4362 111 72 119.426 72 129.807C72 140.188 80.4362 148.614 90.83 148.614C96.6645 148.614 101.894 145.964 105.345 141.783H113.318V148.614H124.356V116.506C124.356 113.457 121.883 111 118.843 111Z" fill="white"/>
<path d="M274.339 111.026C267.204 111.026 261.434 116.802 261.434 123.915V148.627H272.472V123.915C272.472 122.886 273.309 122.05 274.339 122.05C275.37 122.05 276.207 122.886 276.207 123.915V148.627H287.245V123.915C287.245 116.789 281.462 111.026 274.339 111.026Z" fill="white"/>
</g>
<defs>
<clipPath id="clip0_372_2495">
<rect width="229" height="38" fill="white" transform="translate(72 111)"/>
</clipPath>
</defs>
</svg>
