<svg width="374" height="260" viewBox="0 0 374 260" fill="none" xmlns="http://www.w3.org/2000/svg">
<rect width="374" height="260" fill="#FA0050"/>
<g clip-path="url(#clip0_372_2484)">
<path d="M123.146 154.2V145.292L109.915 147.088V155.858C107.759 155.988 105.588 156.077 103.4 156.077C101.213 156.077 99.0413 155.988 96.8861 155.858V147.088L83.655 145.292V154.2C79.0124 153.314 74.467 152.144 70.0512 150.672L65.9919 162.937C77.7565 166.846 90.3232 169 103.392 169C116.461 169 129.028 166.854 140.793 162.937L136.741 150.672C132.334 152.144 127.788 153.314 123.138 154.2H123.146Z" fill="white"/>
<path d="M103.4 143.447C117.839 143.447 129.538 131.703 129.538 117.228C129.538 102.752 117.839 91 103.4 91C88.962 91 77.2542 102.744 77.2542 117.228C77.2542 131.711 88.962 143.447 103.4 143.447ZM103.4 104.069C110.644 104.069 116.51 109.962 116.51 117.219C116.51 124.477 110.644 130.37 103.4 130.37C96.1569 130.37 90.2908 124.477 90.2908 117.219C90.2908 109.962 96.165 104.069 103.4 104.069Z" fill="white"/>
<path d="M218.623 91.7722H205.011V167.35H218.623V91.7722Z" fill="white"/>
<path d="M153.505 95.7383V108.824H178.501V110.961C178.501 114.732 179.019 120.974 175.235 126.412C171.2 132.223 160.846 139.464 151.885 144.317L157.751 155.825C168.113 150.404 183.581 139.79 187.705 132.101C191.837 124.396 192.331 119.137 192.331 104.288L192.299 95.7545L153.505 95.7383Z" fill="white"/>
<path d="M303.941 150.672C299.533 152.144 294.988 153.314 290.345 154.2V145.292L277.114 147.088V155.858C274.959 155.988 272.787 156.077 270.6 156.077C268.412 156.077 266.241 155.988 264.085 155.858V147.088L250.854 145.292V154.2C246.212 153.314 241.666 152.144 237.251 150.672L233.191 162.937C244.956 166.846 257.523 169 270.592 169C283.661 169 296.227 166.854 307.992 162.937L303.933 150.672H303.941Z" fill="white"/>
<path d="M270.6 143.447C285.038 143.447 296.738 131.703 296.738 117.228C296.738 102.752 285.038 91 270.6 91C256.161 91 244.453 102.744 244.453 117.228C244.453 131.711 256.161 143.447 270.6 143.447ZM270.6 104.069C277.843 104.069 283.709 109.962 283.709 117.219C283.709 124.477 277.843 130.37 270.6 130.37C263.356 130.37 257.49 124.477 257.49 117.219C257.49 109.962 263.364 104.069 270.6 104.069Z" fill="white"/>
</g>
<defs>
<clipPath id="clip0_372_2484">
<rect width="242" height="78" fill="white" transform="translate(66 91)"/>
</clipPath>
</defs>
</svg>
