<svg width="374" height="260" viewBox="0 0 374 260" fill="none" xmlns="http://www.w3.org/2000/svg">
<rect width="374" height="260" fill="#2AC1BC"/>
<g clip-path="url(#clip0_372_2505)">
<path d="M306 106.409L301.663 102.145H264.794V105.011L262.346 102.145H225.407V104.802L222.959 101.936H213.235V103.543L212.185 102.145H206.868L204 99H194.276V102.145H186.091V105.011L183.642 102.145H173.918V103.543L172.868 102.145H167.551L164.613 99H154.889V102.145H146.704V105.011L144.115 102.145H134.391V109.694L126.835 102.145H113.823L107.247 108.716V111.023L98.2922 102.145H74.5062L68 108.716V123.255L76.3951 131.573H68V141.289L72.3374 145.552H81.642V156.736L85.9794 161H95.7037V145.552H109.276V136.675L118.23 145.552H131.243L134.531 142.267V156.736L138.868 161H148.453V158.134L151.041 161H187.909V155.268L184.481 150.236H189.169L200.082 161.07H220.79L227.366 154.499V145.972L220.79 139.401L220.37 138.982H227.366V137.584L228.695 138.982H236.951L239.609 129.406L241.078 134.718L245.416 138.982H248.774V156.736L253.111 161H266.823V158.134L269.272 161H306.14V152.472L303.272 149.956H306.14V133.46L303.971 131.782H306.14V124.932L303.971 122.975H306.14V114.448L304.671 113.259H306.14V106.409H306Z" fill="black"/>
<path d="M75.0659 103.474L69.2593 109.275V122.766L75.0659 128.567H97.7325L103.539 122.766V109.275L97.7325 103.474H75.0659ZM96.4733 121.437H76.3951V110.603H96.4033V121.437H96.4733Z" fill="white"/>
<path d="M114.313 103.474L108.506 109.275V134.229L114.313 140.03H126.276L132.082 134.229V109.275L126.276 103.474C126.276 103.474 114.313 103.474 114.313 103.474ZM124.946 132.901H115.642V110.603H124.946V132.901Z" fill="white"/>
<path d="M165.732 140.03L171.539 134.229V116.125L165.732 110.324H153.769L147.963 116.125V134.229L153.769 140.03H165.732ZM155.169 117.453H164.473V132.901H155.169V117.453Z" fill="white"/>
<path d="M69.2593 140.03H82.9013V155.478H90.0371V140.03H103.609V132.901H69.2593V140.03Z" fill="white"/>
<path d="M171.539 103.474H163.354V100.258H156.218V103.474H147.963V107.737H171.539V103.474Z" fill="white"/>
<path d="M142.856 103.474H135.72V155.478H142.856V126.89H145.375V119.76H142.856V103.474Z" fill="white"/>
<path d="M155.169 141.918H147.963V155.478H182.313V148.348H155.169V141.918Z" fill="white"/>
<path d="M182.313 103.474H175.177V140.03H182.313V126.89H185.041V119.76H182.313V103.474Z" fill="white"/>
<path d="M205.119 133.6L210.926 127.798V116.125L205.119 110.324H193.156L187.35 116.125V127.798L193.156 133.6H205.119ZM194.486 117.453H203.79V126.47H194.486V117.453Z" fill="white"/>
<path d="M196.235 136.466L190.428 142.267V149.676L196.235 155.478H215.893L221.7 149.676V142.267L215.893 136.466H196.235ZM214.564 148.348H197.564V143.595H214.564V148.348Z" fill="white"/>
<path d="M210.926 103.474H202.671V100.258H195.535V103.474H187.35V107.737H210.926V103.474Z" fill="white"/>
<path d="M214.564 110.324H212.955V117.453H214.564V121.577H212.955V128.707H214.564V133.46H221.7V103.264H214.564V110.324Z" fill="white"/>
<path d="M300.403 121.927H266.053V126.191H300.403V121.927Z" fill="white"/>
<path d="M266.053 117.453H300.403V111.442H273.189V107.737H300.403V103.474H266.053V117.453Z" fill="white"/>
<path d="M266.053 155.478H300.403V149.467H273.189V144.364H300.403V130.454H266.053V136.466H293.267V140.1H266.053V155.478Z" fill="white"/>
<path d="M247.165 107.737V103.474H226.737V107.737H233.033L225.967 133.46H231.494L236.741 114.587L241.918 133.46H247.444L240.379 107.737H247.165Z" fill="white"/>
<path d="M261.017 103.474H256.749V155.478H261.017V103.474Z" fill="white"/>
<path d="M249.893 114.308H246.885V121.437H249.893V155.478H254.16V103.474H249.893V114.308Z" fill="white"/>
</g>
<defs>
<clipPath id="clip0_372_2505">
<rect width="238" height="62" fill="white" transform="translate(68 99)"/>
</clipPath>
</defs>
</svg>
